<svg width="1400" height="860" viewBox="0 0 1400 860" fill="none" xmlns="http://www.w3.org/2000/svg">
  <defs>
    <linearGradient id="bg" x1="110" y1="90" x2="1270" y2="770" gradientUnits="userSpaceOnUse">
      <stop stop-color="#FFF8EE"/>
      <stop offset="1" stop-color="#F2E8D8"/>
    </linearGradient>
    <linearGradient id="accent" x1="275" y1="180" x2="1120" y2="660" gradientUnits="userSpaceOnUse">
      <stop stop-color="#C65D2E"/>
      <stop offset="0.55" stop-color="#D6A438"/>
      <stop offset="1" stop-color="#233A57"/>
    </linearGradient>
    <filter id="shadow" x="0" y="0" width="1400" height="860" filterUnits="userSpaceOnUse" color-interpolation-filters="sRGB">
      <feDropShadow dx="0" dy="18" stdDeviation="18" flood-color="#1A2433" flood-opacity="0.12"/>
    </filter>
  </defs>

  <rect width="1400" height="860" rx="36" fill="url(#bg)"/>
  <circle cx="1202" cy="134" r="158" fill="#EEC7B5" fill-opacity="0.46"/>
  <circle cx="168" cy="742" r="206" fill="#D9DDE1" fill-opacity="0.48"/>
  <path d="M108 660C268 560 422 524 584 536C781 551 915 648 1180 622" stroke="#D4C8B5" stroke-width="3" stroke-dasharray="10 12"/>
  <path d="M164 244C314 178 474 172 626 206C820 248 998 374 1224 310" stroke="#D4C8B5" stroke-width="3" stroke-dasharray="10 12"/>

  <g filter="url(#shadow)">
    <rect x="482" y="248" width="438" height="258" rx="32" fill="#FCF8F0"/>
    <rect x="482" y="248" width="438" height="258" rx="32" stroke="#223754" stroke-width="4"/>
    <rect x="542" y="272" width="132" height="34" rx="17" fill="#223754"/>
    <text x="608" y="294" text-anchor="middle" fill="#FFF8EE" font-family="Avenir Next, Segoe UI, sans-serif" font-size="16" font-weight="700" letter-spacing="2">CORE MODEL</text>
    <text x="701" y="390" text-anchor="middle" fill="#162333" font-family="Georgia, Times New Roman, serif" font-size="70" font-weight="700">documents</text>
    <text x="701" y="442" text-anchor="middle" fill="#5A6573" font-family="Avenir Next, Segoe UI, sans-serif" font-size="24">one table for work, planning, docs, and context</text>
    <path d="M584 468H818" stroke="url(#accent)" stroke-width="6" stroke-linecap="round"/>
  </g>

  <g filter="url(#shadow)">
    <rect x="136" y="140" width="268" height="136" rx="26" fill="#F8F2E9"/>
    <rect x="136" y="140" width="268" height="136" rx="26" stroke="#233A57" stroke-width="3"/>
    <text x="184" y="185" fill="#C65D2E" font-family="Avenir Next, Segoe UI, sans-serif" font-size="18" font-weight="700" letter-spacing="3">DOCUMENT TYPE</text>
    <text x="184" y="232" fill="#162333" font-family="Georgia, Times New Roman, serif" font-size="42" font-weight="700">Issues</text>
    <text x="184" y="261" fill="#5A6573" font-family="Avenir Next, Segoe UI, sans-serif" font-size="22">tracked through the API</text>
  </g>

  <g filter="url(#shadow)">
    <rect x="108" y="520" width="296" height="156" rx="26" fill="#F8F2E9"/>
    <rect x="108" y="520" width="296" height="156" rx="26" stroke="#233A57" stroke-width="3"/>
    <text x="156" y="566" fill="#C65D2E" font-family="Avenir Next, Segoe UI, sans-serif" font-size="18" font-weight="700" letter-spacing="3">RELATIONSHIPS</text>
    <text x="156" y="614" fill="#162333" font-family="Georgia, Times New Roman, serif" font-size="42" font-weight="700">Projects</text>
    <text x="156" y="648" fill="#5A6573" font-family="Avenir Next, Segoe UI, sans-serif" font-size="22">parent_id, associations, links</text>
  </g>

  <g filter="url(#shadow)">
    <rect x="972" y="160" width="292" height="146" rx="26" fill="#F8F2E9"/>
    <rect x="972" y="160" width="292" height="146" rx="26" stroke="#233A57" stroke-width="3"/>
    <text x="1048" y="206" fill="#C65D2E" font-family="Avenir Next, Segoe UI, sans-serif" font-size="18" font-weight="700" letter-spacing="3">WORK IN CONTEXT</text>
    <text x="1048" y="254" fill="#162333" font-family="Georgia, Times New Roman, serif" font-size="42" font-weight="700">Docs</text>
    <text x="1048" y="287" fill="#5A6573" font-family="Avenir Next, Segoe UI, sans-serif" font-size="20">planning and execution aligned</text>
  </g>

  <g filter="url(#shadow)">
    <rect x="944" y="526" width="316" height="160" rx="26" fill="#F8F2E9"/>
    <rect x="944" y="526" width="316" height="160" rx="26" stroke="#233A57" stroke-width="3"/>
    <text x="1018" y="572" fill="#C65D2E" font-family="Avenir Next, Segoe UI, sans-serif" font-size="18" font-weight="700" letter-spacing="3">REALTIME</text>
    <text x="1018" y="620" fill="#162333" font-family="Georgia, Times New Roman, serif" font-size="42" font-weight="700">Yjs</text>
    <text x="1018" y="654" fill="#5A6573" font-family="Avenir Next, Segoe UI, sans-serif" font-size="20">collaboration converges safely</text>
  </g>

  <g filter="url(#shadow)">
    <rect x="585" y="108" width="236" height="86" rx="22" fill="#233A57"/>
    <text x="703" y="143" text-anchor="middle" fill="#F7F2E8" font-family="Avenir Next, Segoe UI, sans-serif" font-size="18" font-weight="700" letter-spacing="3">SHARED CONTRACT</text>
    <text x="703" y="173" text-anchor="middle" fill="#F7F2E8" font-family="Avenir Next, Segoe UI, sans-serif" font-size="24">web / api / shared</text>
  </g>

  <g stroke="url(#accent)" stroke-width="6" stroke-linecap="round">
    <path d="M404 208C446 220 474 238 500 272"/>
    <path d="M402 582C448 566 482 532 520 492"/>
    <path d="M1000 232C962 244 930 266 896 298"/>
    <path d="M970 586C924 570 892 540 862 500"/>
    <path d="M704 194V246"/>
  </g>

  <g fill="#233A57">
    <circle cx="500" cy="272" r="9"/>
    <circle cx="520" cy="492" r="9"/>
    <circle cx="896" cy="298" r="9"/>
    <circle cx="862" cy="500" r="9"/>
    <circle cx="704" cy="246" r="9"/>
  </g>

</svg>
